<mxfile host="app.diagrams.net" agent="Mozilla/5.0 (X11; Linux x86_64) AppleWebKit/537.36 (KHTML, like Gecko) Chrome/130.0.0.0 Safari/537.36" version="28.0.3">
  <diagram name="Page-1" id="dhZ-BBnoe9LdI6RmhzRi">
    <mxGraphModel dx="1678" dy="1000" grid="1" gridSize="10" guides="1" tooltips="1" connect="1" arrows="1" fold="1" page="1" pageScale="1" pageWidth="850" pageHeight="1100" math="0" shadow="0">
      <root>
        <mxCell id="0" />
        <mxCell id="1" parent="0" />
        <mxCell id="seIx3jWqZTiEiV0GVQvr-2" value="" style="rounded=0;whiteSpace=wrap;html=1;" vertex="1" parent="1">
          <mxGeometry x="4" y="154" width="120" height="256" as="geometry" />
        </mxCell>
        <mxCell id="seIx3jWqZTiEiV0GVQvr-3" value="Sources" style="text;html=1;align=center;verticalAlign=top;whiteSpace=wrap;rounded=0;fontSize=17;" vertex="1" parent="1">
          <mxGeometry x="34" y="136" width="60" height="30" as="geometry" />
        </mxCell>
        <mxCell id="seIx3jWqZTiEiV0GVQvr-4" value="" style="rounded=0;whiteSpace=wrap;html=1;" vertex="1" parent="1">
          <mxGeometry x="194" y="130" width="450" height="510" as="geometry" />
        </mxCell>
        <mxCell id="seIx3jWqZTiEiV0GVQvr-5" value="&lt;h1 style=&quot;margin-top: 0px;&quot;&gt;Data Warehouse&lt;/h1&gt;" style="text;html=1;whiteSpace=wrap;overflow=hidden;rounded=0;align=center;" vertex="1" parent="1">
          <mxGeometry x="309" y="107" width="220" height="120" as="geometry" />
        </mxCell>
        <mxCell id="seIx3jWqZTiEiV0GVQvr-6" value="Bronze Layer" style="swimlane;whiteSpace=wrap;html=1;" vertex="1" parent="1">
          <mxGeometry x="214" y="154" width="140" height="456" as="geometry" />
        </mxCell>
        <mxCell id="seIx3jWqZTiEiV0GVQvr-15" value="Raw Data" style="text;html=1;align=center;verticalAlign=middle;whiteSpace=wrap;rounded=0;" vertex="1" parent="seIx3jWqZTiEiV0GVQvr-6">
          <mxGeometry x="25" y="96" width="60" height="30" as="geometry" />
        </mxCell>
        <mxCell id="seIx3jWqZTiEiV0GVQvr-24" value="" style="line;strokeWidth=2;html=1;" vertex="1" parent="seIx3jWqZTiEiV0GVQvr-6">
          <mxGeometry x="14" y="156" width="82" height="4" as="geometry" />
        </mxCell>
        <mxCell id="seIx3jWqZTiEiV0GVQvr-28" value="&lt;font style=&quot;font-size: 9px;&quot;&gt;Object Type:Tables&lt;/font&gt;&lt;div&gt;&lt;font style=&quot;font-size: 9px;&quot;&gt;Load:&lt;/font&gt;&lt;/div&gt;&lt;div&gt;&lt;ul&gt;&lt;li&gt;&lt;font style=&quot;font-size: 9px;&quot;&gt;Batch Processing&lt;/font&gt;&lt;/li&gt;&lt;li&gt;&lt;font style=&quot;font-size: 9px;&quot;&gt;Full Load&lt;/font&gt;&lt;/li&gt;&lt;li&gt;&lt;font style=&quot;font-size: 9px;&quot;&gt;Truncate &amp;amp; Insert&lt;/font&gt;&lt;/li&gt;&lt;/ul&gt;&lt;/div&gt;&lt;div&gt;&lt;font style=&quot;font-size: 9px;&quot;&gt;No Transofrmations&lt;/font&gt;&lt;/div&gt;&lt;div&gt;&lt;font style=&quot;font-size: 9px;&quot;&gt;Data Model:None(as-is)&lt;/font&gt;&lt;/div&gt;" style="text;html=1;align=left;verticalAlign=top;whiteSpace=wrap;rounded=0;" vertex="1" parent="seIx3jWqZTiEiV0GVQvr-6">
          <mxGeometry x="10" y="166" width="120" height="124" as="geometry" />
        </mxCell>
        <mxCell id="seIx3jWqZTiEiV0GVQvr-68" value="" style="html=1;verticalLabelPosition=bottom;align=center;labelBackgroundColor=#ffffff;verticalAlign=top;strokeWidth=2;strokeColor=#001DBC;shadow=0;dashed=0;shape=mxgraph.ios7.icons.data;fillColor=#0050ef;fontColor=#ffffff;" vertex="1" parent="seIx3jWqZTiEiV0GVQvr-6">
          <mxGeometry x="40" y="36" width="50" height="54" as="geometry" />
        </mxCell>
        <mxCell id="seIx3jWqZTiEiV0GVQvr-71" style="edgeStyle=none;curved=1;rounded=0;orthogonalLoop=1;jettySize=auto;html=1;exitX=0.75;exitY=0;exitDx=0;exitDy=0;entryX=0.56;entryY=0.926;entryDx=0;entryDy=0;entryPerimeter=0;fontSize=12;startSize=8;endSize=8;" edge="1" parent="seIx3jWqZTiEiV0GVQvr-6" source="seIx3jWqZTiEiV0GVQvr-15" target="seIx3jWqZTiEiV0GVQvr-68">
          <mxGeometry relative="1" as="geometry" />
        </mxCell>
        <mxCell id="seIx3jWqZTiEiV0GVQvr-7" value="Gold Layer" style="swimlane;whiteSpace=wrap;html=1;" vertex="1" parent="1">
          <mxGeometry x="514" y="154" width="120" height="456" as="geometry" />
        </mxCell>
        <mxCell id="seIx3jWqZTiEiV0GVQvr-17" value="Business-Ready Data" style="text;html=1;align=center;verticalAlign=middle;whiteSpace=wrap;rounded=0;" vertex="1" parent="seIx3jWqZTiEiV0GVQvr-7">
          <mxGeometry x="10" y="106" width="90" height="30" as="geometry" />
        </mxCell>
        <mxCell id="seIx3jWqZTiEiV0GVQvr-26" value="" style="line;strokeWidth=2;html=1;" vertex="1" parent="seIx3jWqZTiEiV0GVQvr-7">
          <mxGeometry x="14" y="156" width="82" height="4" as="geometry" />
        </mxCell>
        <mxCell id="seIx3jWqZTiEiV0GVQvr-70" value="" style="html=1;verticalLabelPosition=bottom;align=center;labelBackgroundColor=#ffffff;verticalAlign=top;strokeWidth=2;strokeColor=#6F0000;shadow=0;dashed=0;shape=mxgraph.ios7.icons.data;fillColor=#a20025;fontColor=#ffffff;" vertex="1" parent="seIx3jWqZTiEiV0GVQvr-7">
          <mxGeometry x="35" y="36" width="50" height="54" as="geometry" />
        </mxCell>
        <mxCell id="seIx3jWqZTiEiV0GVQvr-8" value="Silver Layer" style="swimlane;whiteSpace=wrap;html=1;" vertex="1" parent="1">
          <mxGeometry x="364" y="154" width="140" height="456" as="geometry" />
        </mxCell>
        <mxCell id="seIx3jWqZTiEiV0GVQvr-25" value="" style="line;strokeWidth=2;html=1;" vertex="1" parent="seIx3jWqZTiEiV0GVQvr-8">
          <mxGeometry x="14" y="156" width="82" height="4" as="geometry" />
        </mxCell>
        <mxCell id="seIx3jWqZTiEiV0GVQvr-69" value="" style="html=1;verticalLabelPosition=bottom;align=center;labelBackgroundColor=#ffffff;verticalAlign=top;strokeWidth=2;strokeColor=#2D7600;shadow=0;dashed=0;shape=mxgraph.ios7.icons.data;fillColor=#60a917;fontColor=#ffffff;" vertex="1" parent="seIx3jWqZTiEiV0GVQvr-8">
          <mxGeometry x="46" y="36" width="50" height="54" as="geometry" />
        </mxCell>
        <mxCell id="seIx3jWqZTiEiV0GVQvr-12" value="CRM" style="image;html=1;image=img/lib/clip_art/general/Empty_Folder_128x128.png" vertex="1" parent="1">
          <mxGeometry x="39" y="166" width="50" height="40" as="geometry" />
        </mxCell>
        <mxCell id="seIx3jWqZTiEiV0GVQvr-13" value="ERP&lt;div&gt;&lt;br&gt;&lt;/div&gt;" style="image;html=1;image=img/lib/clip_art/general/Empty_Folder_128x128.png" vertex="1" parent="1">
          <mxGeometry x="39" y="250" width="50" height="40" as="geometry" />
        </mxCell>
        <mxCell id="seIx3jWqZTiEiV0GVQvr-14" value="" style="verticalLabelPosition=bottom;verticalAlign=top;html=1;strokeWidth=2;shape=mxgraph.arrows2.arrow;dy=0.6;dx=40;notch=0;fillColor=#a0522d;fontColor=#ffffff;strokeColor=#6D1F00;" vertex="1" parent="1">
          <mxGeometry x="116" y="211" width="79" height="30" as="geometry" />
        </mxCell>
        <mxCell id="seIx3jWqZTiEiV0GVQvr-16" value="Cleaned, Standardized Data" style="text;html=1;align=center;verticalAlign=middle;whiteSpace=wrap;rounded=0;" vertex="1" parent="1">
          <mxGeometry x="394" y="260" width="60" height="30" as="geometry" />
        </mxCell>
        <mxCell id="seIx3jWqZTiEiV0GVQvr-18" value="" style="rounded=0;whiteSpace=wrap;html=1;" vertex="1" parent="1">
          <mxGeometry x="704" y="154" width="120" height="200" as="geometry" />
        </mxCell>
        <mxCell id="seIx3jWqZTiEiV0GVQvr-19" value="Consume&lt;div&gt;&lt;br&gt;&lt;/div&gt;" style="text;html=1;align=center;verticalAlign=top;whiteSpace=wrap;rounded=0;fontSize=17;" vertex="1" parent="1">
          <mxGeometry x="734" y="136" width="60" height="30" as="geometry" />
        </mxCell>
        <mxCell id="seIx3jWqZTiEiV0GVQvr-22" value="" style="verticalLabelPosition=bottom;verticalAlign=top;html=1;strokeWidth=2;shape=mxgraph.arrows2.arrow;dy=0.6;dx=40;notch=0;fillColor=#f0a30a;fontColor=#000000;strokeColor=#BD7000;" vertex="1" parent="1">
          <mxGeometry x="635" y="206" width="79" height="30" as="geometry" />
        </mxCell>
        <mxCell id="seIx3jWqZTiEiV0GVQvr-27" value="&lt;font style=&quot;font-size: 9px;&quot;&gt;Object Type:CSV FIles&lt;/font&gt;&lt;div&gt;&lt;font style=&quot;font-size: 9px;&quot;&gt;Interface: Files and Folders&lt;/font&gt;&lt;/div&gt;" style="text;html=1;align=left;verticalAlign=top;whiteSpace=wrap;rounded=0;" vertex="1" parent="1">
          <mxGeometry x="12" y="320" width="130" height="40" as="geometry" />
        </mxCell>
        <mxCell id="seIx3jWqZTiEiV0GVQvr-29" value="" style="line;strokeWidth=2;html=1;" vertex="1" parent="1">
          <mxGeometry x="23" y="310" width="82" height="4" as="geometry" />
        </mxCell>
        <mxCell id="seIx3jWqZTiEiV0GVQvr-30" value="&lt;font style=&quot;font-size: 9px;&quot;&gt;Object Type:Tables&lt;/font&gt;&lt;div&gt;&lt;font style=&quot;font-size: 9px;&quot;&gt;Load:&lt;/font&gt;&lt;/div&gt;&lt;div&gt;&lt;ul&gt;&lt;li&gt;&lt;font style=&quot;font-size: 9px;&quot;&gt;Batch Processing&lt;/font&gt;&lt;/li&gt;&lt;li&gt;&lt;font style=&quot;font-size: 9px;&quot;&gt;Full Load&lt;/font&gt;&lt;/li&gt;&lt;li&gt;&lt;font style=&quot;font-size: 9px;&quot;&gt;Truncate &amp;amp; Insert&lt;/font&gt;&lt;/li&gt;&lt;/ul&gt;&lt;/div&gt;&lt;div&gt;&lt;font size=&quot;1&quot;&gt;Transformations:&lt;/font&gt;&lt;/div&gt;&lt;div&gt;&lt;ul&gt;&lt;li&gt;&lt;font size=&quot;1&quot;&gt;Data cleaning&lt;/font&gt;&lt;/li&gt;&lt;li&gt;&lt;font size=&quot;1&quot;&gt;Data Standardization&lt;/font&gt;&lt;/li&gt;&lt;li&gt;&lt;font size=&quot;1&quot;&gt;Data Normalization&lt;/font&gt;&lt;/li&gt;&lt;li&gt;&lt;font size=&quot;1&quot;&gt;Derived Columns&lt;/font&gt;&lt;/li&gt;&lt;li&gt;&lt;font size=&quot;1&quot;&gt;Data Enrichment&lt;/font&gt;&lt;/li&gt;&lt;/ul&gt;&lt;/div&gt;&lt;div&gt;&lt;font style=&quot;font-size: 9px;&quot;&gt;Data Model:None(as-is)&lt;/font&gt;&lt;/div&gt;" style="text;html=1;align=left;verticalAlign=top;whiteSpace=wrap;rounded=0;" vertex="1" parent="1">
          <mxGeometry x="367" y="320" width="120" height="290" as="geometry" />
        </mxCell>
        <mxCell id="seIx3jWqZTiEiV0GVQvr-31" value="&lt;font style=&quot;font-size: 9px;&quot;&gt;Object Type:Views&lt;/font&gt;&lt;div&gt;&lt;font style=&quot;font-size: 9px;&quot;&gt;No Load&lt;/font&gt;&lt;/div&gt;&lt;div&gt;&lt;span style=&quot;background-color: transparent; color: light-dark(rgb(0, 0, 0), rgb(255, 255, 255)); font-size: x-small;&quot;&gt;Transformations:&lt;/span&gt;&lt;/div&gt;&lt;div&gt;&lt;ul&gt;&lt;li&gt;&lt;font size=&quot;1&quot;&gt;Data Integrations&lt;/font&gt;&lt;/li&gt;&lt;li&gt;&lt;font size=&quot;1&quot;&gt;Aggregations&lt;/font&gt;&lt;/li&gt;&lt;li&gt;&lt;font size=&quot;1&quot;&gt;Business Logics&lt;/font&gt;&lt;/li&gt;&lt;/ul&gt;&lt;/div&gt;&lt;div&gt;&lt;font style=&quot;font-size: 9px;&quot;&gt;Data Model:&lt;/font&gt;&lt;/div&gt;&lt;div&gt;&lt;ul&gt;&lt;li&gt;&lt;font style=&quot;font-size: 9px;&quot;&gt;Star Schema&lt;/font&gt;&lt;/li&gt;&lt;li&gt;&lt;font style=&quot;font-size: 9px;&quot;&gt;Flat Table&lt;/font&gt;&lt;/li&gt;&lt;li&gt;&lt;font style=&quot;font-size: 9px;&quot;&gt;Aggregate Table&lt;/font&gt;&lt;/li&gt;&lt;/ul&gt;&lt;/div&gt;" style="text;html=1;align=left;verticalAlign=top;whiteSpace=wrap;rounded=0;" vertex="1" parent="1">
          <mxGeometry x="514" y="320" width="120" height="290" as="geometry" />
        </mxCell>
        <mxCell id="seIx3jWqZTiEiV0GVQvr-47" value="" style="fillColor=#10739E;strokeColor=none;" vertex="1" parent="1">
          <mxGeometry x="714" y="190" width="14" height="29" as="geometry" />
        </mxCell>
        <mxCell id="seIx3jWqZTiEiV0GVQvr-50" value="" style="fillColor=#F2931E;strokeColor=none;" vertex="1" parent="1">
          <mxGeometry x="728" y="170" width="14" height="49" as="geometry" />
        </mxCell>
        <mxCell id="seIx3jWqZTiEiV0GVQvr-53" value="" style="fillColor=#AE4132;strokeColor=none;" vertex="1" parent="1">
          <mxGeometry x="742" y="160" width="14" height="59" as="geometry" />
        </mxCell>
        <mxCell id="seIx3jWqZTiEiV0GVQvr-62" value="" style="html=1;verticalLabelPosition=bottom;align=center;labelBackgroundColor=#ffffff;verticalAlign=top;strokeWidth=2;strokeColor=#0080F0;shadow=0;dashed=0;shape=mxgraph.ios7.icons.looking_glass;" vertex="1" parent="1">
          <mxGeometry x="726" y="241" width="30" height="30" as="geometry" />
        </mxCell>
        <mxCell id="seIx3jWqZTiEiV0GVQvr-63" value="" style="image;sketch=0;aspect=fixed;html=1;points=[];align=center;fontSize=12;image=img/lib/mscae/Resource_Graph_Explorer.svg;" vertex="1" parent="1">
          <mxGeometry x="716.5" y="287" width="49" height="50" as="geometry" />
        </mxCell>
        <mxCell id="seIx3jWqZTiEiV0GVQvr-64" value="Bi and Reporting" style="text;html=1;align=center;verticalAlign=middle;whiteSpace=wrap;rounded=0;" vertex="1" parent="1">
          <mxGeometry x="764" y="174.5" width="60" height="30" as="geometry" />
        </mxCell>
        <mxCell id="seIx3jWqZTiEiV0GVQvr-65" value="Ad-HOC&lt;div&gt;SQL Queries&lt;/div&gt;" style="text;html=1;align=center;verticalAlign=middle;whiteSpace=wrap;rounded=0;" vertex="1" parent="1">
          <mxGeometry x="764" y="236" width="60" height="30" as="geometry" />
        </mxCell>
        <mxCell id="seIx3jWqZTiEiV0GVQvr-66" value="Machine Learning" style="text;html=1;align=center;verticalAlign=middle;whiteSpace=wrap;rounded=0;" vertex="1" parent="1">
          <mxGeometry x="764" y="290" width="60" height="30" as="geometry" />
        </mxCell>
        <mxCell id="seIx3jWqZTiEiV0GVQvr-67" style="edgeStyle=none;curved=1;rounded=0;orthogonalLoop=1;jettySize=auto;html=1;exitX=0.5;exitY=0;exitDx=0;exitDy=0;fontSize=12;startSize=8;endSize=8;" edge="1" parent="1" source="seIx3jWqZTiEiV0GVQvr-64" target="seIx3jWqZTiEiV0GVQvr-64">
          <mxGeometry relative="1" as="geometry" />
        </mxCell>
      </root>
    </mxGraphModel>
  </diagram>
</mxfile>
